<svg width="16" height="16" viewBox="0 0 16 16" fill="none" xmlns="http://www.w3.org/2000/svg">
<path fill-rule="evenodd" clip-rule="evenodd" d="M3.7355 1H4.74533C5.09954 0.999997 5.38523 0.999994 5.61777 1.0157C5.85685 1.03186 6.06831 1.06591 6.26851 1.14801C6.74971 1.34536 7.13202 1.72389 7.33133 2.20033C7.41426 2.39854 7.44867 2.6079 7.46498 2.84462C7.48083 3.07486 7.48083 3.35772 7.48083 3.70842V4.70825C7.48083 5.05895 7.48083 5.34184 7.46498 5.57205C7.44867 5.80877 7.41426 6.01813 7.33133 6.21634C7.13202 6.69278 6.74971 7.0713 6.26851 7.26865C6.06831 7.35075 5.85685 7.38482 5.61777 7.40098C5.38523 7.41667 5.09954 7.41667 4.74533 7.41667H3.7355C3.38129 7.41667 3.09561 7.41667 2.86306 7.40098C2.62398 7.38482 2.41253 7.35075 2.21233 7.26865C1.73113 7.0713 1.34882 6.69278 1.14949 6.21634C1.06657 6.01813 1.03217 5.80877 1.01586 5.57205C0.999994 5.34181 0.999997 5.05895 1 4.70825V3.70842C0.999997 3.35772 0.999994 3.07486 1.01586 2.84462C1.03217 2.6079 1.06657 2.39854 1.14949 2.20033C1.34882 1.72389 1.73113 1.34536 2.21233 1.14801C2.41253 1.06591 2.62398 1.03186 2.86306 1.0157C3.09561 0.999994 3.38129 0.999997 3.7355 1ZM2.91653 1.79167C2.71742 1.80512 2.60147 1.83029 2.51295 1.86657C2.22423 1.98499 1.99484 2.21211 1.87524 2.49797C1.83859 2.58562 1.81317 2.70042 1.79959 2.89755C1.78577 3.09819 1.78557 3.35451 1.78557 3.72221V4.69445C1.78557 5.06216 1.78577 5.31848 1.79959 5.51911C1.81317 5.71625 1.83859 5.83105 1.87524 5.9187C1.99484 6.20456 2.22423 6.43168 2.51295 6.5501C2.60147 6.58638 2.71742 6.61155 2.91653 6.625C3.11917 6.63868 3.37805 6.63888 3.74943 6.63888H4.7314C5.10278 6.63888 5.36166 6.63868 5.5643 6.625C5.76341 6.61155 5.87936 6.58638 5.96788 6.5501C6.2566 6.43168 6.486 6.20456 6.6056 5.9187C6.64224 5.83105 6.66767 5.71625 6.68125 5.51911C6.69506 5.31848 6.69527 5.06216 6.69527 4.69445V3.72221C6.69527 3.35451 6.69506 3.09819 6.68125 2.89755C6.66767 2.70042 6.64224 2.58562 6.6056 2.49797C6.486 2.21211 6.2566 1.98499 5.96788 1.86657C5.87936 1.83029 5.76341 1.80512 5.5643 1.79167C5.36166 1.77799 5.10278 1.77779 4.7314 1.77779H3.74943C3.37805 1.77779 3.11917 1.77799 2.91653 1.79167ZM3.7355 8.58333H4.74533C5.09954 8.58333 5.38523 8.58333 5.61777 8.59902C5.85685 8.61518 6.06831 8.64925 6.26851 8.73135C6.74971 8.9287 7.13202 9.30722 7.33133 9.78366C7.41426 9.98187 7.44867 10.1912 7.46498 10.428C7.48083 10.6582 7.48083 10.941 7.48083 11.2917V12.2916C7.48083 12.6423 7.48083 12.9252 7.46498 13.1554C7.44867 13.3921 7.41426 13.6015 7.33133 13.7997C7.13202 14.2761 6.74971 14.6546 6.26851 14.852C6.06831 14.9341 5.85685 14.9681 5.61777 14.9843C5.38523 15 5.09954 15 4.74533 15H3.7355C3.38129 15 3.09561 15 2.86306 14.9843C2.62398 14.9681 2.41253 14.9341 2.21233 14.852C1.73113 14.6546 1.34882 14.2761 1.14949 13.7997C1.06657 13.6015 1.03217 13.3921 1.01586 13.1554C0.999994 12.9251 0.999997 12.6423 1 12.2916V11.2917C0.999997 10.941 0.999994 10.6582 1.01586 10.428C1.03217 10.1912 1.06657 9.98187 1.14949 9.78366C1.34882 9.30722 1.73113 8.9287 2.21233 8.73135C2.41253 8.64925 2.62398 8.61518 2.86306 8.59902C3.09561 8.58333 3.38129 8.58333 3.7355 8.58333ZM2.91653 9.375C2.71742 9.38845 2.60147 9.41362 2.51295 9.4499C2.22423 9.56832 1.99484 9.79544 1.87524 10.0813C1.83859 10.169 1.81317 10.2837 1.79959 10.4809C1.78577 10.6815 1.78557 10.9378 1.78557 11.3055V12.2778C1.78557 12.6455 1.78577 12.9018 1.79959 13.1024C1.81317 13.2996 1.83859 13.4144 1.87524 13.502C1.99484 13.7879 2.22423 14.015 2.51295 14.1334C2.60147 14.1697 2.71742 14.1949 2.91653 14.2083C3.11917 14.222 3.37805 14.2222 3.74943 14.2222H4.7314C5.10278 14.2222 5.36166 14.222 5.5643 14.2083C5.76341 14.1949 5.87936 14.1697 5.96788 14.1334C6.2566 14.015 6.486 13.7879 6.6056 13.502C6.64224 13.4144 6.66767 13.2996 6.68125 13.1024C6.69506 12.9018 6.69527 12.6455 6.69527 12.2778V11.3055C6.69527 10.9378 6.69506 10.6815 6.68125 10.4809C6.66767 10.2837 6.64224 10.169 6.6056 10.0813C6.486 9.79544 6.2566 9.56832 5.96788 9.4499C5.87936 9.41362 5.76341 9.38845 5.5643 9.375C5.36166 9.36132 5.10278 9.36112 4.7314 9.36112H3.74943C3.37805 9.36112 3.11917 9.36132 2.91653 9.375ZM11.3947 1H12.4045C12.7587 0.999997 13.0444 0.999994 13.2769 1.0157C13.516 1.03186 13.7275 1.06591 13.9277 1.14801C14.4089 1.34536 14.7912 1.72389 14.9905 2.20033C15.0734 2.39854 15.1078 2.6079 15.1242 2.84462C15.14 3.07486 15.14 3.35772 15.14 3.70842V4.70825C15.14 5.05895 15.14 5.34184 15.1242 5.57205C15.1078 5.80877 15.0734 6.01813 14.9905 6.21634C14.7912 6.69278 14.4089 7.0713 13.9277 7.26865C13.7275 7.35075 13.516 7.38482 13.2769 7.40098C13.0444 7.41667 12.7587 7.41667 12.4045 7.41667H11.3947C11.0405 7.41667 10.7548 7.41667 10.5222 7.40098C10.2831 7.38482 10.0717 7.35075 9.87149 7.26865C9.39029 7.0713 9.00798 6.69278 8.80867 6.21634C8.72574 6.01813 8.69133 5.80877 8.67501 5.57205C8.65917 5.34181 8.65917 5.05895 8.65917 4.70825V3.70842C8.65917 3.35772 8.65917 3.07486 8.67501 2.84462C8.69133 2.6079 8.72574 2.39854 8.80867 2.20033C9.00798 1.72389 9.39029 1.34536 9.87149 1.14801C10.0717 1.06591 10.2831 1.03186 10.5222 1.0157C10.7548 0.999994 11.0405 0.999997 11.3947 1ZM10.5757 1.79167C10.3766 1.80512 10.2606 1.83029 10.1721 1.86657C9.8834 1.98499 9.654 2.21211 9.5344 2.49797C9.49776 2.58562 9.47233 2.70042 9.45875 2.89755C9.44494 3.09819 9.44473 3.35451 9.44473 3.72221V4.69445C9.44473 5.06216 9.44494 5.31848 9.45875 5.51911C9.47233 5.71625 9.49776 5.83105 9.5344 5.9187C9.654 6.20456 9.8834 6.43168 10.1721 6.5501C10.2606 6.58638 10.3766 6.61155 10.5757 6.625C10.7783 6.63868 11.0372 6.63888 11.4086 6.63888H12.3906C12.7619 6.63888 13.0208 6.63868 13.2235 6.625C13.4226 6.61155 13.5385 6.58638 13.6271 6.5501C13.9158 6.43168 14.1452 6.20456 14.2648 5.9187C14.3014 5.83105 14.3268 5.71625 14.3404 5.51911C14.3542 5.31848 14.3544 5.06216 14.3544 4.69445V3.72221C14.3544 3.35451 14.3542 3.09819 14.3404 2.89755C14.3268 2.70042 14.3014 2.58562 14.2648 2.49797C14.1452 2.21211 13.9158 1.98499 13.6271 1.86657C13.5385 1.83029 13.4226 1.80512 13.2235 1.79167C13.0208 1.77799 12.7619 1.77779 12.3906 1.77779H11.4086C11.0372 1.77779 10.7783 1.77799 10.5757 1.79167ZM11.3947 8.58333H12.4045C12.7587 8.58333 13.0444 8.58333 13.2769 8.59902C13.516 8.61518 13.7275 8.64925 13.9277 8.73135C14.4089 8.9287 14.7912 9.30722 14.9905 9.78366C15.0734 9.98187 15.1078 10.1912 15.1242 10.428C15.14 10.6582 15.14 10.941 15.14 11.2917V12.2916C15.14 12.6423 15.14 12.9252 15.1242 13.1554C15.1078 13.3921 15.0734 13.6015 14.9905 13.7997C14.7912 14.2761 14.4089 14.6546 13.9277 14.852C13.7275 14.9341 13.516 14.9681 13.2769 14.9843C13.0444 15 12.7587 15 12.4045 15H11.3947C11.0405 15 10.7548 15 10.5222 14.9843C10.2831 14.9681 10.0717 14.9341 9.87149 14.852C9.39029 14.6546 9.00798 14.2761 8.80867 13.7997C8.72574 13.6015 8.69133 13.3921 8.67501 13.1554C8.65917 12.9251 8.65917 12.6423 8.65917 12.2916V11.2917C8.65917 10.941 8.65917 10.6582 8.67501 10.428C8.69133 10.1912 8.72574 9.98187 8.80867 9.78366C9.00798 9.30722 9.39029 8.9287 9.87149 8.73135C10.0717 8.64925 10.2831 8.61518 10.5222 8.59902C10.7548 8.58333 11.0405 8.58333 11.3947 8.58333ZM10.5757 9.375C10.3766 9.38845 10.2606 9.41362 10.1721 9.4499C9.8834 9.56832 9.654 9.79544 9.5344 10.0813C9.49776 10.169 9.47233 10.2837 9.45875 10.4809C9.44494 10.6815 9.44473 10.9378 9.44473 11.3055V12.2778C9.44473 12.6455 9.44494 12.9018 9.45875 13.1024C9.47233 13.2996 9.49776 13.4144 9.5344 13.502C9.654 13.7879 9.8834 14.015 10.1721 14.1334C10.2606 14.1697 10.3766 14.1949 10.5757 14.2083C10.7783 14.222 11.0372 14.2222 11.4086 14.2222H12.3906C12.7619 14.2222 13.0208 14.222 13.2235 14.2083C13.4226 14.1949 13.5385 14.1697 13.6271 14.1334C13.9158 14.015 14.1452 13.7879 14.2648 13.502C14.3014 13.4144 14.3268 13.2996 14.3404 13.1024C14.3542 12.9018 14.3544 12.6455 14.3544 12.2778V11.3055C14.3544 10.9378 14.3542 10.6815 14.3404 10.4809C14.3268 10.2837 14.3014 10.169 14.2648 10.0813C14.1452 9.79544 13.9158 9.56832 13.6271 9.4499C13.5385 9.41362 13.4226 9.38845 13.2235 9.375C13.0208 9.36132 12.7619 9.36112 12.3906 9.36112H11.4086C11.0372 9.36112 10.7783 9.36132 10.5757 9.375Z" fill="#11111F" stroke="#11111F" stroke-width="0.5"/>
</svg>
