<svg width="16" height="16" viewBox="0 0 16 16" fill="none" xmlns="http://www.w3.org/2000/svg">
<path d="M5.95437 14.14V11.9933C5.95436 11.4472 6.42761 11.0036 7.01397 10.9999H9.16182C9.75098 10.9999 10.2286 11.4447 10.2286 11.9933V14.1466C10.2285 14.6102 10.6258 14.9891 11.1235 15H12.5554C13.9828 15 15.14 13.9225 15.14 12.5933V6.48648C15.1324 5.96358 14.8687 5.47254 14.4241 5.15312L9.52696 1.47971C8.66904 0.840096 7.44948 0.840096 6.59156 1.47971L1.71595 5.15979C1.2696 5.47792 1.0055 5.96977 1 6.49315V12.5933C1 13.9225 2.15715 15 3.58458 15H5.01648C5.52655 15 5.94005 14.615 5.94005 14.14" stroke="#11111F" stroke-width="1.5" stroke-linecap="round" stroke-linejoin="round"/>
</svg>
