<svg width="16" height="16" viewBox="0 0 16 16" fill="none" xmlns="http://www.w3.org/2000/svg">
<path d="M5.95437 14.292V12.1384C5.95436 11.5906 6.42761 11.1455 7.01397 11.1419H9.16182C9.75098 11.1419 10.2286 11.588 10.2286 12.1384V14.2987C10.2285 14.7638 10.6258 15.1439 11.1235 15.1548H12.5554C13.9828 15.1548 15.14 14.0738 15.14 12.7404V6.61386C15.1324 6.08927 14.8687 5.59665 14.4241 5.2762L9.52696 1.59094C8.66904 0.949261 7.44948 0.949261 6.59156 1.59094L1.71595 5.28289C1.2696 5.60204 1.0055 6.09548 1 6.62055V12.7404C1 14.0738 2.15715 15.1548 3.58458 15.1548H5.01648C5.52655 15.1548 5.94005 14.7686 5.94005 14.292" stroke="#E6E9EE" stroke-width="1.5" stroke-linecap="round" stroke-linejoin="round"/>
</svg>
