<svg width="14" height="13" viewBox="0 0 14 13" fill="none" xmlns="http://www.w3.org/2000/svg">
<path d="M13.6943 11.7612L12.4915 10.5738C11.7652 9.85679 11.7367 8.71419 12.0922 7.75745C12.3264 7.12725 12.4482 6.45676 12.4474 5.77592C12.4474 4.63355 12.1052 3.51684 11.4642 2.56699C10.8232 1.61715 9.91212 0.876833 8.84616 0.439668C7.78019 0.00250259 6.60724 -0.11188 5.47561 0.110985C4.34399 0.33385 3.30453 0.883953 2.48868 1.69173C1.67282 2.49951 1.11722 3.52868 0.892124 4.64909C0.667031 5.76951 0.782557 6.93086 1.22409 7.98627C1.66563 9.04168 2.41335 9.94375 3.37269 10.5784C4.33203 11.2131 5.45992 11.5518 6.61371 11.5518C7.31635 11.5527 8.00809 11.4267 8.65665 11.1848C9.59895 10.8334 10.7211 10.8622 11.4347 11.5709L12.6589 12.7864C12.7266 12.8541 12.8073 12.9078 12.8962 12.9445C12.985 12.9811 13.0803 13 13.1766 13C13.2729 13 13.3682 12.9811 13.457 12.9445C13.5459 12.9078 13.6265 12.8541 13.6943 12.7864C13.7627 12.7193 13.8169 12.6395 13.8539 12.5515C13.891 12.4635 13.91 12.3691 13.91 12.2738C13.91 12.1785 13.891 12.0841 13.8539 11.9962C13.8169 11.9082 13.7627 11.8283 13.6943 11.7612ZM2.23845 5.77592C2.23845 4.91914 2.49505 4.08161 2.97581 3.36922C3.45657 2.65684 4.1399 2.1016 4.93937 1.77373C5.73884 1.44586 6.61856 1.36007 7.46728 1.52722C8.31599 1.69437 9.09559 2.10694 9.70748 2.71278C10.3194 3.31861 10.7361 4.09049 10.9049 4.9308C11.0737 5.77111 10.9871 6.64212 10.6559 7.43368C10.3248 8.22524 9.76398 8.90179 9.04447 9.37779C8.32496 9.85379 7.47905 10.1079 6.61371 10.1079C5.45332 10.1079 4.34045 9.65146 3.51993 8.83906C2.69941 8.02666 2.23845 6.92482 2.23845 5.77592Z" fill="#11111F" fill-opacity="0.8"/>
</svg>
