<svg width="14" height="14" viewBox="0 0 14 14" fill="none" xmlns="http://www.w3.org/2000/svg">
<path d="M11.2009 8.40904C10.7875 8.41177 10.3798 8.50594 10.0071 8.68478C9.63444 8.86362 9.30608 9.12269 9.04561 9.44337L5.47677 7.80102C5.64457 7.28788 5.64457 6.73472 5.47677 6.22158L9.04561 4.57923C9.46661 5.08659 10.0535 5.42911 10.7028 5.54636C11.352 5.6636 12.0219 5.54803 12.5941 5.22003C13.1664 4.89203 13.6042 4.3727 13.8303 3.75369C14.0565 3.13468 14.0564 2.45578 13.8302 1.8368C13.6039 1.21783 13.166 0.698579 12.5937 0.370687C12.0214 0.0427949 11.3515 -0.0726584 10.7023 0.044703C10.053 0.162064 9.46619 0.504696 9.04528 1.01213C8.62438 1.51956 8.39649 2.15917 8.40182 2.81808C8.40392 2.98457 8.42031 3.15058 8.4508 3.31428L4.756 5.01253C4.36209 4.62786 3.86326 4.36784 3.32203 4.26504C2.7808 4.16225 2.22123 4.22125 1.71343 4.43466C1.20562 4.64807 0.772171 5.0064 0.467377 5.46474C0.162582 5.92309 0 6.46108 0 7.0113C0 7.56152 0.162582 8.09951 0.467377 8.55786C0.772171 9.0162 1.20562 9.37453 1.71343 9.58794C2.22123 9.80135 2.7808 9.86036 3.32203 9.75756C3.86326 9.65477 4.36209 9.39474 4.756 9.01007L8.4508 10.7083C8.42031 10.872 8.40392 11.038 8.40182 11.2045C8.40182 11.7574 8.56598 12.2979 8.87355 12.7576C9.18112 13.2173 9.61828 13.5756 10.1297 13.7872C10.6412 13.9988 11.204 14.0541 11.747 13.9463C12.29 13.8384 12.7887 13.5722 13.1802 13.1812C13.5716 12.7903 13.8382 12.2922 13.9462 11.7499C14.0542 11.2076 13.9988 10.6455 13.7869 10.1347C13.5751 9.62393 13.2163 9.18734 12.756 8.88016C12.2957 8.57299 11.7545 8.40904 11.2009 8.40904ZM11.2009 1.42034C11.4777 1.42034 11.7483 1.50232 11.9785 1.6559C12.2086 1.80949 12.388 2.02779 12.4939 2.28319C12.5998 2.53859 12.6276 2.81963 12.5736 3.09077C12.5196 3.3619 12.3863 3.61096 12.1905 3.80643C11.9948 4.00191 11.7454 4.13503 11.4739 4.18896C11.2025 4.2429 10.9211 4.21522 10.6653 4.10943C10.4096 4.00363 10.191 3.82448 10.0372 3.59462C9.88345 3.36477 9.80136 3.09453 9.80136 2.81808C9.80136 2.44738 9.94882 2.09186 10.2113 1.82973C10.4737 1.5676 10.8297 1.42034 11.2009 1.42034ZM2.80364 8.40904C2.52683 8.40904 2.25625 8.32706 2.02609 8.17348C1.79594 8.01989 1.61655 7.8016 1.51063 7.54619C1.4047 7.29079 1.37698 7.00975 1.43098 6.73862C1.48499 6.46748 1.61828 6.21843 1.81401 6.02295C2.00974 5.82747 2.25911 5.69435 2.5306 5.64042C2.80209 5.58649 3.08349 5.61417 3.33922 5.71996C3.59495 5.82575 3.81353 6.0049 3.96732 6.23476C4.1211 6.46462 4.20318 6.73485 4.20318 7.0113C4.20318 7.382 4.05573 7.73752 3.79327 7.99965C3.5308 8.26178 3.17482 8.40904 2.80364 8.40904ZM11.2009 12.6023C10.9241 12.6023 10.6535 12.5203 10.4234 12.3667C10.1932 12.2131 10.0138 11.9948 9.9079 11.7394C9.80197 11.484 9.77425 11.203 9.82826 10.9318C9.88226 10.6607 10.0156 10.4116 10.2113 10.2162C10.407 10.0207 10.6564 9.88757 10.9279 9.83364C11.1994 9.77971 11.4808 9.80738 11.7365 9.91318C11.9922 10.019 12.2108 10.1981 12.3646 10.428C12.5184 10.6578 12.6005 10.9281 12.6005 11.2045C12.6005 11.5752 12.453 11.9307 12.1905 12.1929C11.9281 12.455 11.5721 12.6023 11.2009 12.6023Z" fill="#11111F"/>
</svg>
