<svg width="15" height="15" viewBox="0 0 15 15" fill="none" xmlns="http://www.w3.org/2000/svg">
<path d="M4.51478 6.67376C4.36665 6.67376 4.22185 6.71725 4.09869 6.79873C3.97552 6.88021 3.87953 6.99602 3.82284 7.13152C3.76616 7.26702 3.75132 7.41612 3.78022 7.55996C3.80912 7.7038 3.88045 7.83593 3.98519 7.93963C4.08994 8.04334 4.22338 8.11396 4.36867 8.14257C4.51395 8.17119 4.66453 8.1565 4.80139 8.10038C4.93824 8.04425 5.05521 7.94921 5.1375 7.82726C5.2198 7.70532 5.26372 7.56195 5.26372 7.41529C5.26372 7.21863 5.18481 7.03002 5.04436 6.89095C4.90391 6.75189 4.71341 6.67376 4.51478 6.67376ZM7.51056 6.67376C7.36243 6.67376 7.21763 6.71725 7.09446 6.79873C6.9713 6.88021 6.87531 6.99602 6.81862 7.13152C6.76193 7.26702 6.7471 7.41612 6.776 7.55996C6.8049 7.7038 6.87623 7.83593 6.98097 7.93963C7.08571 8.04334 7.21916 8.11396 7.36444 8.14257C7.50972 8.17119 7.66031 8.1565 7.79716 8.10038C7.93402 8.04425 8.05098 7.94921 8.13328 7.82726C8.21558 7.70532 8.2595 7.56195 8.2595 7.41529C8.2595 7.21863 8.18059 7.03002 8.04014 6.89095C7.89968 6.75189 7.70919 6.67376 7.51056 6.67376ZM10.5063 6.67376C10.3582 6.67376 10.2134 6.71725 10.0902 6.79873C9.96708 6.88021 9.87109 6.99602 9.8144 7.13152C9.75771 7.26702 9.74288 7.41612 9.77178 7.55996C9.80068 7.7038 9.87201 7.83593 9.97675 7.93963C10.0815 8.04334 10.2149 8.11396 10.3602 8.14257C10.5055 8.17119 10.6561 8.1565 10.7929 8.10038C10.9298 8.04425 11.0468 7.94921 11.1291 7.82726C11.2114 7.70532 11.2553 7.56195 11.2553 7.41529C11.2553 7.21863 11.1764 7.03002 11.0359 6.89095C10.8955 6.75189 10.705 6.67376 10.5063 6.67376ZM7.51056 0C6.52703 0 5.55313 0.191802 4.64447 0.564456C3.73581 0.937109 2.91018 1.48332 2.21472 2.17189C0.810174 3.56253 0.02111 5.44863 0.02111 7.41529C0.0145626 9.12758 0.61337 10.7882 1.71372 12.1092L0.215836 13.5922C0.111914 13.6965 0.0415158 13.8289 0.0135247 13.9728C-0.0144664 14.1166 0.00120348 14.2655 0.0585572 14.4005C0.120763 14.5339 0.221606 14.646 0.348284 14.7226C0.474962 14.7992 0.621764 14.8368 0.770055 14.8306H7.51056C9.49688 14.8306 11.4018 14.0493 12.8064 12.6587C14.2109 11.2681 15 9.38195 15 7.41529C15 5.44863 14.2109 3.56253 12.8064 2.17189C11.4018 0.781252 9.49688 0 7.51056 0ZM7.51056 13.3475H2.57501L3.27153 12.6579C3.3423 12.5892 3.39859 12.5073 3.43716 12.417C3.47573 12.3266 3.4958 12.2295 3.49621 12.1314C3.4934 11.9358 3.41264 11.7493 3.27153 11.6123C2.29085 10.6425 1.68015 9.36591 1.54348 8.00021C1.40681 6.6345 1.75263 5.26412 2.52201 4.12255C3.29139 2.98098 4.43673 2.13884 5.7629 1.73961C7.08908 1.34038 8.51404 1.40876 9.795 1.9331C11.076 2.45744 12.1337 3.40531 12.7879 4.6152C13.4422 5.82509 13.6526 7.22216 13.3831 8.56838C13.1137 9.9146 12.3812 11.1267 11.3104 11.9981C10.2395 12.8696 8.89667 13.3464 7.51056 13.3475Z" fill="#E6E9EE"/>
</svg>
