<svg width="20" height="20" viewBox="0 0 20 20" fill="none" xmlns="http://www.w3.org/2000/svg">
<path d="M20 10C20 15.5228 15.5228 20 10 20C4.47715 20 0 15.5228 0 10C0 4.47715 4.47715 0 10 0C15.5228 0 20 4.47715 20 10Z" fill="#ED8C02"/>
<path d="M13 6.11603C13 4.75382 11.606 3.57143 10 3.57143C8.394 3.57143 7 4.75382 7 6.11603C7 7.47824 8.394 8.66063 10 8.66063C11.606 8.66063 13 7.47824 13 6.11603ZM10 9.50883C7.372 9.50883 5 11.9135 5 14.9017C5 17.8899 15 17.8899 15 14.9017C15 11.9135 12.628 9.50883 10 9.50883Z" fill="white"/>
</svg>
