<svg width="15" height="15" viewBox="0 0 15 15" fill="none" xmlns="http://www.w3.org/2000/svg">
<path fill-rule="evenodd" clip-rule="evenodd" d="M7.51598 4.47583e-05C6.73587 -0.00511046 6.01882 0.43543 5.6713 1.13226L5.34898 1.77696C5.22196 1.82413 5.097 1.8758 4.97338 1.93148L4.29011 1.7037C3.55197 1.45728 2.73269 1.65265 2.18571 2.20854C1.64662 2.75649 1.46156 3.56318 1.70489 4.29049L1.93265 4.97248C1.87578 5.09698 1.82257 5.22277 1.77415 5.35078L1.13217 5.67179C0.436127 6.019 -0.00565164 6.73543 5.46244e-05 7.51531C0.00568106 8.28421 0.444887 8.98563 1.13084 9.32819L1.77681 9.6532C1.82417 9.78028 1.87566 9.90529 1.93131 10.0288L1.70489 10.7108C1.45873 11.4483 1.65346 12.267 2.20835 12.8141C2.75582 13.3539 3.56251 13.5391 4.29011 13.2963L4.97205 13.0698C5.09638 13.1265 5.22247 13.1786 5.35031 13.227L5.6713 13.8677C6.01882 14.5646 6.73587 15.006 7.51598 14.9999C8.28467 14.9948 8.98629 14.5544 9.3287 13.8677L9.64969 13.2257C9.77831 13.178 9.90549 13.1263 10.0306 13.0698L10.7099 13.2963C11.4375 13.5391 12.2442 13.354 12.7916 12.8141C13.3469 12.2666 13.5419 11.4473 13.2951 10.7095L13.0687 10.0275C13.1253 9.90352 13.1776 9.77798 13.2259 9.65054L13.8678 9.32819C14.5543 8.98581 14.9943 8.28455 14.9999 7.51531C15.0057 6.7354 14.5639 6.019 13.8678 5.67179L13.2232 5.34944C13.1758 5.22159 13.1245 5.09557 13.0687 4.97115L13.2951 4.29049V4.28915C13.5378 3.56219 13.3531 2.75615 12.8143 2.20854C12.2673 1.65254 11.448 1.45736 10.7099 1.7037L10.0266 1.93148C9.90264 1.87503 9.77715 1.8225 9.64969 1.7743L9.3287 1.13226C8.98629 0.445637 8.28471 0.00605061 7.51598 4.47583e-05ZM7.50533 1.36403C7.7618 1.36602 7.99353 1.51148 8.10868 1.74233L8.54155 2.60814C8.58219 2.68958 8.63871 2.76206 8.70779 2.82131C8.77687 2.88056 8.85711 2.92538 8.94378 2.95314C9.20071 3.0351 9.45023 3.13795 9.68965 3.26217C9.77047 3.30423 9.8589 3.32968 9.94972 3.337C10.0405 3.34432 10.1319 3.33337 10.2184 3.30479L11.1401 2.99843H11.1414C11.3898 2.91543 11.6596 2.98037 11.842 3.16493C12.0217 3.34768 12.0823 3.61424 12.0005 3.85891V3.86024L11.6955 4.77801C11.6671 4.86377 11.656 4.95433 11.6628 5.04442C11.6697 5.13452 11.6944 5.22235 11.7354 5.30282C11.8581 5.5428 11.9599 5.79289 12.0405 6.05009C12.0679 6.13761 12.1127 6.2187 12.1722 6.28851C12.2317 6.35832 12.3047 6.4154 12.3868 6.45635L13.2578 6.89192C13.4921 7.00869 13.638 7.24488 13.6361 7.50465C13.6342 7.76061 13.4888 7.99287 13.2578 8.10806H13.2565L12.3907 8.5423C12.3096 8.58308 12.2373 8.63968 12.1783 8.70875C12.1193 8.77783 12.0747 8.85801 12.0471 8.94457C11.9647 9.20156 11.8614 9.45109 11.7368 9.6905C11.6945 9.77151 11.669 9.86018 11.6617 9.95125C11.6544 10.0423 11.6654 10.1339 11.6942 10.2206L12.0005 11.1411C12.0836 11.3893 12.0205 11.6591 11.8353 11.8417C11.6529 12.0216 11.3862 12.0833 11.1414 12.0016H11.1401L10.2224 11.6965C10.1365 11.6679 10.0457 11.6567 9.95534 11.6636C9.86501 11.6704 9.77695 11.6952 9.69631 11.7365C9.45602 11.8597 9.20673 11.962 8.94911 12.0429C8.86159 12.0703 8.78051 12.1151 8.71071 12.1746C8.64091 12.2341 8.58383 12.3071 8.54288 12.3892L8.10868 13.2577C7.99353 13.4886 7.76184 13.6339 7.50533 13.6359C7.2449 13.638 7.00823 13.4921 6.89132 13.2577L6.45845 12.3932C6.41781 12.3117 6.36129 12.2393 6.29221 12.18C6.22313 12.1208 6.14289 12.0759 6.05622 12.0482C5.79885 11.9657 5.54877 11.8626 5.30902 11.7378C5.22802 11.6956 5.13936 11.67 5.0483 11.6627C4.95723 11.6554 4.86563 11.6664 4.77892 11.6952L3.85858 12.0016C3.61383 12.0833 3.34713 12.0221 3.16466 11.8417C2.97949 11.6592 2.91645 11.3893 2.9995 11.1411V11.1397L3.30451 10.222C3.33292 10.1359 3.3439 10.0451 3.33681 9.95475C3.32972 9.86441 3.3047 9.77639 3.26322 9.69583C3.14019 9.45637 3.03783 9.20673 2.95688 8.9499C2.92959 8.86285 2.88512 8.78216 2.82609 8.7126C2.76707 8.64305 2.69469 8.58605 2.61325 8.54496L1.74352 8.10806H1.74218C1.5112 7.99284 1.3658 7.76074 1.36392 7.50465C1.36202 7.24488 1.50792 7.00877 1.74218 6.89192L2.60792 6.45902C2.68935 6.41837 2.76182 6.36184 2.82106 6.29276C2.88031 6.22367 2.92513 6.14342 2.95288 6.05675C3.03533 5.79976 3.1386 5.55022 3.26322 5.31081C3.30528 5.22999 3.33072 5.14155 3.33804 5.05072C3.34537 4.9599 3.33441 4.86852 3.30584 4.782L2.9995 3.86024V3.85891C2.91765 3.61429 2.97831 3.34755 3.158 3.16493C3.34041 2.9796 3.61021 2.91568 3.85858 2.99843L4.77759 3.30479C4.86354 3.33341 4.95433 3.34461 5.04466 3.33775C5.13499 3.33089 5.22305 3.3061 5.30369 3.26483C5.54326 3.14213 5.79277 3.04032 6.04956 2.9598C6.13708 2.93235 6.21816 2.88754 6.28796 2.82803C6.35776 2.76853 6.41484 2.69555 6.45579 2.61347L6.89132 1.74233C7.00823 1.50777 7.2449 1.362 7.50533 1.36403ZM7.50266 4.09068C5.62764 4.09068 4.089 5.62413 4.089 7.49932C4.08898 9.37452 5.62762 10.912 7.50266 10.912C9.3777 10.912 10.9097 9.37452 10.9097 7.49932C10.9097 5.62413 9.37769 4.09068 7.50266 4.09068ZM7.50266 5.45467C8.6406 5.45467 9.5458 6.36128 9.5458 7.49932C9.54581 8.63737 8.64061 9.54797 7.50266 9.54797C6.36472 9.54797 5.45286 8.63737 5.45286 7.49932C5.45287 6.36128 6.36472 5.45467 7.50266 5.45467Z" fill="#11111F"/>
</svg>
